<svg xmlns="http://www.w3.org/2000/svg" version="1.1" xmlns:xlink="http://www.w3.org/1999/xlink" xmlns:svgjs="http://svgjs.dev/svgjs" width="768" height="1024" preserveAspectRatio="none" viewBox="0 0 768 1024"><g mask="url(&quot;#SvgjsMask1045&quot;)" fill="none"><path d="M-53.3 -49.1 a4.2 4.2 0 1 0 8.4 0 a4.2 4.2 0 1 0 -8.4 0z" fill="rgba(19, 88, 67, 0.36)" class="triangle-float2"></path><path d="M204.672,456.93C287.396,453.01,342.096,379.587,381.04,306.498C417.1,238.821,439.089,157.84,398.801,92.592C359.955,29.679,278.582,22.927,204.672,20.859C125.303,18.638,35.608,15.648,-9.23,81.176C-58.378,153.003,-46.293,249.072,-3.237,324.708C40.311,401.208,116.744,461.097,204.672,456.93" fill="rgba(19, 88, 67, 0.36)" class="triangle-float2"></path><path d="M141.067,296.979C196.111,294.846,244.716,264.507,273.047,217.266C302.292,168.501,311.431,108.351,284.096,58.49C255.784,6.848,199.934,-21.7,141.067,-23.471C78.688,-25.347,14.418,-4.105,-17.682,49.413C-50.574,104.251,-44.423,174.401,-9.905,228.231C22.086,278.121,81.845,299.274,141.067,296.979" fill="rgba(19, 88, 67, 0.36)" class="triangle-float3"></path><path d="M531.3694130322212 161.78343055875825L751.7020288061046 229.1458713268768 819.0644695742232 8.81325555299344 598.7318538003398-58.54918521512511z" fill="rgba(19, 88, 67, 0.36)" class="triangle-float3"></path><path d="M634.353,72.459C656.518,74.087,682.302,73.294,693.855,54.307C705.67,34.89,695.211,11.06,683.602,-8.481C672.321,-27.469,656.434,-45.392,634.353,-45.849C611.643,-46.319,591.578,-30.923,581.442,-10.595C572.267,7.806,577.234,29.21,588.282,46.552C598.428,62.478,615.521,71.076,634.353,72.459" fill="rgba(19, 88, 67, 0.36)" class="triangle-float1"></path><path d="M646.429,100.115C669.758,99.759,689.181,83.641,700.225,63.088C710.657,43.674,709.328,21.117,699.469,1.406C688.262,-21.002,671.45,-43.18,646.429,-44.471C619.694,-45.85,595.316,-28.363,582.981,-4.603C571.507,17.498,576.808,43.476,589.712,64.774C602.084,85.193,622.557,100.479,646.429,100.115" fill="rgba(19, 88, 67, 0.36)" class="triangle-float1"></path><path d="M-73.2 841.21 a44.01 44.01 0 1 0 88.02 0 a44.01 44.01 0 1 0 -88.02 0z" fill="rgba(19, 88, 67, 0.36)" class="triangle-float3"></path><path d="M-161.27 929.26 a220.13 220.13 0 1 0 440.26 0 a220.13 220.13 0 1 0 -440.26 0z" fill="rgba(19, 88, 67, 0.36)" class="triangle-float3"></path><path d="M200.25489028052414 1079.5891614363645L208.29573432078035 849.3295148911649-30.004756264675535 1071.5483173961084z" fill="rgba(19, 88, 67, 0.36)" class="triangle-float2"></path><path d="M827.8170270725057 828.4406302059906L597.9782698926422 812.3687386553441 581.9063783419956 1042.2074958352077 811.7451355218592 1058.279387385854z" fill="rgba(19, 88, 67, 0.36)" class="triangle-float3"></path><path d="M736.564,1137.115C787.061,1134.737,830.368,1105.089,856.28,1061.682C882.949,1017.008,893.502,962.025,868.236,916.543C842.335,869.917,789.887,847.422,736.564,846.18C680.695,844.879,623.235,862.634,593.824,910.153C563.023,959.918,564.427,1024.416,595.585,1073.959C624.967,1120.678,681.435,1139.711,736.564,1137.115" fill="rgba(19, 88, 67, 0.36)" class="triangle-float2"></path><path d="M488.7 893.71 a149.01 149.01 0 1 0 298.02 0 a149.01 149.01 0 1 0 -298.02 0z" fill="rgba(19, 88, 67, 0.36)" class="triangle-float3"></path></g><defs><mask id="SvgjsMask1045"><rect width="768" height="1024" fill="#ffffff"></rect></mask><style>
                @keyframes float1 {
                    0%{transform: translate(0, 0)}
                    50%{transform: translate(-10px, 0)}
                    100%{transform: translate(0, 0)}
                }

                .triangle-float1 {
                    animation: float1 5s infinite;
                }

                @keyframes float2 {
                    0%{transform: translate(0, 0)}
                    50%{transform: translate(-5px, -5px)}
                    100%{transform: translate(0, 0)}
                }

                .triangle-float2 {
                    animation: float2 4s infinite;
                }

                @keyframes float3 {
                    0%{transform: translate(0, 0)}
                    50%{transform: translate(0, -10px)}
                    100%{transform: translate(0, 0)}
                }

                .triangle-float3 {
                    animation: float3 6s infinite;
                }
            </style></defs></svg>